<svg xmlns="http://www.w3.org/2000/svg" viewBox="0 0 448 512"><path d="M298.3 348.7l-4.5 6.6c-3.8 5.5-11.2 6.8-16.7 3.1l-63.8-43.9c-3.3-2.2-5.2-5.9-5.2-9.9V172c0-6.6 5.4-12 12-12h8c6.6 0 12 5.4 12 12v122l55.2 38c5.3 3.8 6.7 11.2 3 16.7z"/><path d="M448 288c0-37.7-9.3-73.3-25.8-104.5 16.1-19.4 25.8-44.3 25.8-71.5C448 50.1 397.9 0 336 0c-45.1 0-83.6 26.6-101.3 64.2-6.8-.3-14.2-.3-21.3 0C195.4 26.3 156.8 0 112 0 50.1 0 0 50.1 0 112c0 27.2 9.7 52.1 25.8 71.5C9.3 214.7 0 250.3 0 288c0 64.2 27 122.2 70.4 163l-33.7 33.7c-6.2 6.2-6.2 16.4 0 22.6 6.2 6.2 16.4 6.3 22.6 0l36-36C131.7 497 176.1 512 224 512s92.3-15 128.7-40.7l36 36c6.2 6.2 16.4 6.3 22.6 0 6.2-6.2 6.2-16.4 0-22.6L377.6 451C421 410.2 448 352.2 448 288zM336 32c44.1 0 80 35.9 80 80 0 15.6-4.5 30.1-12.2 42.4-32.3-43.4-80-74.7-134.9-85.9C283.2 46.6 307.9 32 336 32zm-224 0c28.1 0 52.8 14.6 67.1 36.5-55 11.2-102.6 42.5-134.9 85.9C36.5 142.1 32 127.6 32 112c0-44.1 35.9-80 80-80zm304 256c0 106-86 192-192 192S32 394 32 288 118 96 224 96s192 86 192 192z"/></svg>
