<svg xmlns="http://www.w3.org/2000/svg" viewBox="0 0 448 512"><style>.st0{fill:none}</style><path d="M279.03 99.515l-7.071 7.07c-4.686 4.686-4.686 12.284 0 16.971L387.887 239H76c-6.627 0-12 5.373-12 12v10c0 6.627 5.373 12 12 12h311.887L271.959 388.444c-4.686 4.686-4.686 12.284 0 16.971l7.071 7.07c4.686 4.686 12.284 4.686 16.97 0l148.485-148c4.686-4.686 4.686-12.284 0-16.971L296 99.515c-4.686-4.687-12.284-4.687-16.97 0zM0 436V76c0-6.627 5.373-12 12-12h8c6.627 0 12 5.373 12 12v360c0 6.627-5.373 12-12 12h-8c-6.627 0-12-5.373-12-12z"/></svg>
