<svg xmlns="http://www.w3.org/2000/svg" viewBox="0 0 448 512"><style>.st0{fill:none}</style><path d="M168.97 412.485l7.071-7.07c4.686-4.686 4.686-12.284 0-16.971L60.113 273H372c6.627 0 12-5.373 12-12v-10c0-6.627-5.373-12-12-12H60.113l115.928-115.444c4.686-4.686 4.686-12.284 0-16.971l-7.071-7.07c-4.686-4.686-12.284-4.686-16.97 0l-148.485 148c-4.686 4.686-4.686 12.284 0 16.971l148.485 148c4.686 4.686 12.284 4.686 16.97-.001zM448 76v360c0 6.627-5.373 12-12 12h-8c-6.627 0-12-5.373-12-12V76c0-6.627 5.373-12 12-12h8c6.627 0 12 5.373 12 12z"/></svg>
