<svg xmlns="http://www.w3.org/2000/svg" viewBox="0 0 512 512"><style>.st0{fill:none}</style><path d="M8 256c0 136.967 111.033 248 248 248s248-111.033 248-248S392.967 8 256 8 8 119.033 8 256zM256 40c118.663 0 216 96.055 216 216 0 118.663-96.055 216-216 216-118.663 0-216-96.055-216-216 0-118.663 96.055-216 216-216z"/><path d="M251.535 132.465l-6.915 6.915c-4.747 4.747-4.677 12.464.156 17.123L330.328 239H140c-6.627 0-12 5.373-12 12v10c0 6.627 5.373 12 12 12h190.328l-85.552 82.497c-4.832 4.66-4.902 12.377-.156 17.123l6.915 6.915c4.686 4.687 12.284 4.687 16.971 0l115.051-115.05c4.686-4.686 4.686-12.284 0-16.971l-115.051-115.05c-4.687-4.686-12.285-4.686-16.971.001z"/></svg>
