<svg xmlns="http://www.w3.org/2000/svg" viewBox="0 0 384 512"><style>.st0{fill:none}</style><path d="M153.14 448c-8.836 0-16-7.163-16-16V288H43.27c-7.121 0-10.693-8.604-5.666-13.648l143.064-143.524c6.252-6.272 16.411-6.273 22.664 0l143.064 143.524c5.027 5.043 1.455 13.648-5.666 13.648h-93.87v144c0 8.837-7.164 16-16 16h-77.72m0 32h77.72c26.467 0 48-21.533 48-48V320h61.87c35.488 0 53.486-43.001 28.33-68.238L225.995 108.237c-18.771-18.831-49.217-18.834-67.991 0L14.94 251.761C-10.112 276.894 7.634 320 43.27 320h61.87v112c0 26.467 21.533 48 48 48zM12 32h360c6.627 0 12 5.373 12 12v8c0 6.627-5.373 12-12 12H12C5.373 64 0 58.627 0 52v-8c0-6.627 5.373-12 12-12z"/></svg>
