<svg xmlns="http://www.w3.org/2000/svg" viewBox="0 0 384 512"><style>.st0{fill:none}</style><path d="M372 480H12c-6.627 0-12-5.373-12-12v-8c0-6.627 5.373-12 12-12h360c6.627 0 12 5.373 12 12v8c0 6.627-5.373 12-12 12zM153.14 384c-8.836 0-16-7.163-16-16V224H43.27c-7.121 0-10.693-8.604-5.666-13.648L180.668 66.828c6.252-6.272 16.411-6.273 22.664 0l143.064 143.524c5.027 5.043 1.455 13.648-5.666 13.648h-93.87v144c0 8.837-7.164 16-16 16h-77.72m0 32h77.72c26.467 0 48-21.533 48-48V256h61.87c35.488 0 53.486-43.001 28.33-68.238L225.995 44.237c-18.771-18.831-49.217-18.834-67.991 0L14.94 187.761C-10.112 212.894 7.634 256 43.27 256h61.87v112c0 26.467 21.533 48 48 48z"/></svg>
