<svg xmlns="http://www.w3.org/2000/svg" viewBox="0 0 448 512"><style>.st0{fill:none}</style><path d="M219.535 132.465l-6.915 6.915c-4.747 4.747-4.677 12.464.156 17.123L298.328 239H108c-6.627 0-12 5.373-12 12v10c0 6.627 5.373 12 12 12h190.328l-85.552 82.497c-4.832 4.66-4.902 12.377-.156 17.123l6.915 6.915c4.686 4.687 12.284 4.687 16.971 0l115.051-115.05c4.686-4.686 4.686-12.284 0-16.971l-115.051-115.05c-4.687-4.686-12.285-4.686-16.971.001z"/><path d="M0 80v352c0 26.51 21.49 48 48 48h352c26.51 0 48-21.49 48-48V80c0-26.51-21.49-48-48-48H48C21.49 32 0 53.49 0 80zm400-16c8.822 0 16 7.178 16 16v352c0 8.822-7.178 16-16 16H48c-8.822 0-16-7.178-16-16V80c0-8.822 7.178-16 16-16h352z"/></svg>
