<svg xmlns="http://www.w3.org/2000/svg" viewBox="0 0 384 512"><style>.st0{fill:none}</style><path d="M348.485 311.03l-7.07-7.071c-4.686-4.686-12.284-4.686-16.971 0L209 419.887V108c0-6.627-5.373-12-12-12h-10c-6.627 0-12 5.373-12 12v311.887L59.556 303.959c-4.686-4.686-12.284-4.686-16.971 0l-7.07 7.071c-4.686 4.686-4.686 12.284 0 16.97l148 148.485c4.686 4.686 12.284 4.686 16.971 0l148-148.485c4.686-4.686 4.686-12.284-.001-16.97zM12 32h360c6.627 0 12 5.373 12 12v8c0 6.627-5.373 12-12 12H12C5.373 64 0 58.627 0 52v-8c0-6.627 5.373-12 12-12z"/></svg>
