<svg xmlns="http://www.w3.org/2000/svg" viewBox="0 0 448 512"><style>.st0{fill:none}</style><path d="M0 436V76c0-6.627 5.373-12 12-12h8c6.627 0 12 5.373 12 12v360c0 6.627-5.373 12-12 12h-8c-6.627 0-12-5.373-12-12zM96 217.14c0-8.836 7.163-16 16-16h144v-93.87c0-7.121 8.604-10.693 13.648-5.666l141.637 143.064c6.272 6.252 6.273 16.411 0 22.664L269.648 410.396c-5.043 5.027-13.648 1.455-13.648-5.666v-93.87H112c-8.837 0-16-7.164-16-16v-77.72m-32 0v77.72c0 26.467 21.533 48 48 48h112v61.87c0 35.488 43.001 53.486 68.238 28.33l141.637-143.065c18.831-18.771 18.834-49.217 0-67.991L292.239 78.94C267.106 53.888 224 71.634 224 107.27v61.87H112c-26.467 0-48 21.533-48 48z"/></svg>
