<svg xmlns="http://www.w3.org/2000/svg" viewBox="0 0 448 512"><style>.st0{fill:none}</style><path d="M400 32H48C21.49 32 0 53.49 0 80v352c0 26.51 21.49 48 48 48h352c26.51 0 48-21.49 48-48V80c0-26.51-21.49-48-48-48zm16 400c0 8.822-7.178 16-16 16H48c-8.822 0-16-7.178-16-16V80c0-8.822 7.178-16 16-16h352c8.822 0 16 7.178 16 16v352z"/><path d="M351.993 224H288V120c0-13.25-10.75-24-24-24h-80c-13.25 0-24 10.75-24 24v104H96.041c-28.43 0-42.77 34.49-22.63 54.63L201.37 406.633c12.5 12.49 32.76 12.49 45.26 0L374.593 278.63c20.09-20.1 5.88-54.63-22.6-54.63zM224 384L96 256h96V128h64v128h96L224 384z"/></svg>
