<svg xmlns="http://www.w3.org/2000/svg" viewBox="0 0 384 512"><style>.st0{fill:none}</style><path d="M35.515 264.97l7.07 7.071c4.686 4.686 12.284 4.686 16.971 0L175 156.113V468c0 6.627 5.373 12 12 12h10c6.627 0 12-5.373 12-12V156.113l115.444 115.928c4.686 4.686 12.284 4.686 16.971 0l7.07-7.071c4.686-4.686 4.686-12.284 0-16.97l-148-148.485c-4.686-4.686-12.284-4.686-16.971 0L35.515 248c-4.687 4.686-4.687 12.284 0 16.97zM12 32h360c6.627 0 12 5.373 12 12v8c0 6.627-5.373 12-12 12H12C5.373 64 0 58.627 0 52v-8c0-6.627 5.373-12 12-12z"/></svg>
