<svg xmlns="http://www.w3.org/2000/svg" viewBox="0 0 448 512"><style>.st0{fill:none}</style><path d="M448 76v360c0 6.627-5.373 12-12 12h-8c-6.627 0-12-5.373-12-12V76c0-6.627 5.373-12 12-12h8c6.627 0 12 5.373 12 12zM352 294.86c0 8.836-7.163 16-16 16H192v93.87c0 7.121-8.604 10.693-13.648 5.666L36.715 267.332c-6.272-6.252-6.273-16.411 0-22.664l141.637-143.064c5.043-5.027 13.648-1.455 13.648 5.666v93.87h144c8.837 0 16 7.164 16 16v77.72m32 0v-77.72c0-26.467-21.533-48-48-48H224v-61.87c0-35.488-43.001-53.486-68.238-28.33L14.124 222.005c-18.831 18.771-18.834 49.217 0 67.991L155.761 433.06C180.894 458.112 224 440.366 224 404.73v-61.87h112c26.467 0 48-21.533 48-48z"/></svg>
