<svg xmlns="http://www.w3.org/2000/svg" viewBox="0 0 448 512"><style>.st0{fill:none}</style><path d="M100.465 260.465l6.915 6.915c4.747 4.747 12.464 4.677 17.123-.156L207 181.672V372c0 6.627 5.373 12 12 12h10c6.627 0 12-5.373 12-12V181.672l82.497 85.552c4.66 4.832 12.377 4.902 17.123.156l6.915-6.915c4.687-4.686 4.687-12.284 0-16.971l-115.05-115.051c-4.686-4.686-12.284-4.686-16.971 0l-115.05 115.051c-4.686 4.687-4.686 12.285.001 16.971z"/><path d="M48 480h352c26.51 0 48-21.49 48-48V80c0-26.51-21.49-48-48-48H48C21.49 32 0 53.49 0 80v352c0 26.51 21.49 48 48 48zM32 80c0-8.822 7.178-16 16-16h352c8.822 0 16 7.178 16 16v352c0 8.822-7.178 16-16 16H48c-8.822 0-16-7.178-16-16V80z"/></svg>
