<svg xmlns="http://www.w3.org/2000/svg" viewBox="0 0 448 512"><style>.st0{fill:none}</style><path d="M48 480h352c26.51 0 48-21.49 48-48V80c0-26.51-21.49-48-48-48H48C21.49 32 0 53.49 0 80v352c0 26.51 21.49 48 48 48zM32 80c0-8.822 7.178-16 16-16h352c8.822 0 16 7.178 16 16v352c0 8.822-7.178 16-16 16H48c-8.822 0-16-7.178-16-16V80z"/><path d="M96.007 288H160v104c0 13.25 10.75 24 24 24h80c13.25 0 24-10.75 24-24V288h63.959c28.43 0 42.77-34.49 22.63-54.63L246.63 105.367c-12.5-12.49-32.76-12.49-45.26 0L73.407 233.37c-20.09 20.1-5.88 54.63 22.6 54.63zM224 128l128 128h-96v128h-64V256H96l128-128z"/></svg>
