<svg xmlns="http://www.w3.org/2000/svg" viewBox="0 0 512 512"><style>.st0{fill:none}</style><path d="M256 504c136.967 0 248-111.033 248-248S392.967 8 256 8 8 119.033 8 256s111.033 248 248 248zM40 256c0-118.663 96.055-216 216-216 118.663 0 216 96.055 216 216 0 118.663-96.055 216-216 216-118.663 0-216-96.055-216-216z"/><path d="M132.465 260.465l6.915 6.915c4.747 4.747 12.464 4.677 17.123-.156L239 181.672V372c0 6.627 5.373 12 12 12h10c6.627 0 12-5.373 12-12V181.672l82.497 85.552c4.66 4.832 12.377 4.902 17.123.156l6.915-6.915c4.687-4.686 4.687-12.284 0-16.971l-115.05-115.051c-4.686-4.686-12.284-4.686-16.971 0l-115.05 115.051c-4.686 4.687-4.686 12.285.001 16.971z"/></svg>
