<svg xmlns="http://www.w3.org/2000/svg" viewBox="0 0 512 512"><style>.st0{fill:none}</style><path d="M504 256C504 119.033 392.967 8 256 8S8 119.033 8 256s111.033 248 248 248 248-111.033 248-248zM256 472c-118.663 0-216-96.055-216-216 0-118.663 96.055-216 216-216 118.663 0 216 96.055 216 216 0 118.663-96.055 216-216 216z"/><path d="M260.465 379.535l6.915-6.915c4.747-4.747 4.677-12.464-.156-17.123L181.672 273H372c6.627 0 12-5.373 12-12v-10c0-6.627-5.373-12-12-12H181.672l85.552-82.497c4.832-4.66 4.902-12.377.156-17.123l-6.915-6.915c-4.686-4.687-12.284-4.687-16.971 0l-115.051 115.05c-4.686 4.686-4.686 12.284 0 16.971l115.051 115.05c4.687 4.686 12.285 4.686 16.971-.001z"/></svg>
