<svg xmlns="http://www.w3.org/2000/svg" viewBox="0 0 448 512"><style>.st0{fill:none}</style><path d="M228.465 379.535l6.915-6.915c4.747-4.747 4.677-12.464-.156-17.123L149.672 273H340c6.627 0 12-5.373 12-12v-10c0-6.627-5.373-12-12-12H149.672l85.552-82.497c4.832-4.66 4.902-12.377.156-17.123l-6.915-6.915c-4.686-4.687-12.284-4.687-16.971 0L96.443 247.515c-4.686 4.686-4.686 12.284 0 16.971l115.051 115.05c4.687 4.686 12.285 4.686 16.971-.001z"/><path d="M448 432V80c0-26.51-21.49-48-48-48H48C21.49 32 0 53.49 0 80v352c0 26.51 21.49 48 48 48h352c26.51 0 48-21.49 48-48zM48 448c-8.822 0-16-7.178-16-16V80c0-8.822 7.178-16 16-16h352c8.822 0 16 7.178 16 16v352c0 8.822-7.178 16-16 16H48z"/></svg>
