<svg xmlns="http://www.w3.org/2000/svg" viewBox="0 0 384 512"><style>.st0{fill:none}</style><path d="M230.86 64c8.836 0 16 7.163 16 16v144h93.87c7.121 0 10.693 8.604 5.666 13.648L203.332 381.172c-6.252 6.272-16.411 6.273-22.664 0L37.604 237.648C32.577 232.604 36.149 224 43.27 224h93.87V80c0-8.837 7.164-16 16-16h77.72m0-32h-77.72c-26.467 0-48 21.533-48 48v112H43.27c-35.488 0-53.486 43.001-28.33 68.238l143.065 143.524c18.771 18.831 49.217 18.834 67.991 0L369.06 260.239C394.112 235.106 376.366 192 340.73 192h-61.87V80c0-26.467-21.533-48-48-48zM372 480H12c-6.627 0-12-5.373-12-12v-8c0-6.627 5.373-12 12-12h360c6.627 0 12 5.373 12 12v8c0 6.627-5.373 12-12 12z"/></svg>
