<svg xmlns="http://www.w3.org/2000/svg" viewBox="0 0 512 512"><style>.st0{fill:none}</style><path d="M256 8C119.033 8 8 119.033 8 256s111.033 248 248 248 248-111.033 248-248S392.967 8 256 8zm216 248c0 118.663-96.055 216-216 216-118.663 0-216-96.055-216-216 0-118.663 96.055-216 216-216 118.663 0 216 96.055 216 216z"/><path d="M383.993 224H320V120c0-13.25-10.75-24-24-24h-80c-13.25 0-24 10.75-24 24v104h-63.959c-28.43 0-42.77 34.49-22.63 54.63L233.37 406.633c12.5 12.49 32.76 12.49 45.26 0L406.593 278.63c20.09-20.1 5.88-54.63-22.6-54.63zM256 384L128 256h96V128h64v128h96L256 384z"/></svg>
