<svg xmlns="http://www.w3.org/2000/svg" viewBox="0 0 512 512"><style>.st0{fill:none}</style><path d="M504 256C504 119.033 392.967 8 256 8S8 119.033 8 256s111.033 248 248 248 248-111.033 248-248zM256 472c-118.663 0-216-96.055-216-216 0-118.663 96.055-216 216-216 118.663 0 216 96.055 216 216 0 118.663-96.055 216-216 216z"/><path d="M288 383.993V320h104c13.25 0 24-10.75 24-24v-80c0-13.25-10.75-24-24-24H288v-63.959c0-28.43-34.49-42.77-54.63-22.63L105.367 233.37c-12.49 12.5-12.49 32.76 0 45.26L233.37 406.593c20.1 20.09 54.63 5.88 54.63-22.6zM128 256l128-128v96h128v64H256v96L128 256z"/></svg>
