<svg xmlns="http://www.w3.org/2000/svg" viewBox="0 0 512 512"><style>.st0{fill:none}</style><path d="M8 256c0 136.967 111.033 248 248 248s248-111.033 248-248S392.967 8 256 8 8 119.033 8 256zM256 40c118.663 0 216 96.055 216 216 0 118.663-96.055 216-216 216-118.663 0-216-96.055-216-216 0-118.663 96.055-216 216-216z"/><path d="M224 128.007V192H120c-13.25 0-24 10.75-24 24v80c0 13.25 10.75 24 24 24h104v63.959c0 28.43 34.49 42.77 54.63 22.63L406.633 278.63c12.49-12.5 12.49-32.76 0-45.26L278.63 105.407c-20.1-20.09-54.63-5.88-54.63 22.6zM384 256L256 384v-96H128v-64h128v-96l128 128z"/></svg>
