<svg xmlns="http://www.w3.org/2000/svg" viewBox="0 0 512 512"><style>.st0{fill:none}</style><path d="M256 504c136.967 0 248-111.033 248-248S392.967 8 256 8 8 119.033 8 256s111.033 248 248 248zM40 256c0-118.663 96.055-216 216-216 118.663 0 216 96.055 216 216 0 118.663-96.055 216-216 216-118.663 0-216-96.055-216-216z"/><path d="M128.007 288H192v104c0 13.25 10.75 24 24 24h80c13.25 0 24-10.75 24-24V288h63.959c28.43 0 42.77-34.49 22.63-54.63L278.63 105.367c-12.5-12.49-32.76-12.49-45.26 0L105.407 233.37c-20.09 20.1-5.88 54.63 22.6 54.63zM256 128l128 128h-96v128h-64V256h-96l128-128z"/></svg>
