<svg xmlns="http://www.w3.org/2000/svg" viewBox="0 0 448 512"><style>.st0{fill:none}</style><path d="M448 432V80c0-26.51-21.49-48-48-48H48C21.49 32 0 53.49 0 80v352c0 26.51 21.49 48 48 48h352c26.51 0 48-21.49 48-48zM48 448c-8.822 0-16-7.178-16-16V80c0-8.822 7.178-16 16-16h352c8.822 0 16 7.178 16 16v352c0 8.822-7.178 16-16 16H48z"/><path d="M256 383.993V320h104c13.25 0 24-10.75 24-24v-80c0-13.25-10.75-24-24-24H256v-63.959c0-28.43-34.49-42.77-54.63-22.63L73.367 233.37c-12.49 12.5-12.49 32.76 0 45.26L201.37 406.593c20.1 20.09 54.63 5.88 54.63-22.6zM96 256l128-128v96h128v64H224v96L96 256z"/></svg>
