<svg xmlns="http://www.w3.org/2000/svg" viewBox="0 0 448 512"><path d="M400 64h-48V12c0-6.627-5.373-12-12-12h-8c-6.627 0-12 5.373-12 12v52H128V12c0-6.627-5.373-12-12-12h-8c-6.627 0-12 5.373-12 12v52H48C21.49 64 0 85.49 0 112v352c0 26.51 21.49 48 48 48h352c26.51 0 48-21.49 48-48V112c0-26.51-21.49-48-48-48zM48 96h352c8.822 0 16 7.178 16 16v48H32v-48c0-8.822 7.178-16 16-16zm352 384H48c-8.822 0-16-7.178-16-16V192h384v272c0 8.822-7.178 16-16 16z"/><path d="M205.387 427.39l-79.931-52.071c-5.558-3.621-7.128-11.061-3.507-16.619l6.556-10.063c3.621-5.558 11.061-7.128 16.619-3.507l59.857 38.994 90.916-138.772c3.635-5.548 11.079-7.099 16.628-3.464l10.046 6.582c5.548 3.635 7.099 11.079 3.464 16.628l-104.046 158.81c-3.629 5.538-11.054 7.095-16.602 3.482z"/></svg>
