<svg xmlns="http://www.w3.org/2000/svg" viewBox="0 0 448 512"><path d="M400 64h-48V12c0-6.627-5.373-12-12-12h-8c-6.627 0-12 5.373-12 12v52H128V12c0-6.627-5.373-12-12-12h-8c-6.627 0-12 5.373-12 12v52H48C21.49 64 0 85.49 0 112v352c0 26.51 21.49 48 48 48h352c26.51 0 48-21.49 48-48V112c0-26.51-21.49-48-48-48zM48 96h352c8.822 0 16 7.178 16 16v48H32v-48c0-8.822 7.178-16 16-16zm352 384H48c-8.822 0-16-7.178-16-16V192h384v272c0 8.822-7.178 16-16 16z"/><path d="M212.685 224h22.63c6.889 0 12.364 5.787 11.982 12.666l-6.667 120c-.353 6.359-5.613 11.334-11.982 11.334h-9.296c-6.369 0-11.628-4.975-11.982-11.334l-6.667-120c-.381-6.879 5.093-12.666 11.982-12.666z"/><circle cx="224" cy="416" r="28"/></svg>
