<svg xmlns="http://www.w3.org/2000/svg" viewBox="0 0 448 512"><path d="M400 64h-48V12c0-6.627-5.373-12-12-12h-8c-6.627 0-12 5.373-12 12v52H128V12c0-6.627-5.373-12-12-12h-8c-6.627 0-12 5.373-12 12v52H48C21.49 64 0 85.49 0 112v352c0 26.51 21.49 48 48 48h352c26.51 0 48-21.49 48-48V112c0-26.51-21.49-48-48-48zM48 96h352c8.822 0 16 7.178 16 16v48H32v-48c0-8.822 7.178-16 16-16zm352 384H48c-8.822 0-16-7.178-16-16V192h384v272c0 8.822-7.178 16-16 16z"/><path d="M244.818 279.182L132.396 391.604l-4.303 30.121c-.849 5.94 4.243 11.031 10.182 10.182l30.121-4.303 112.422-112.422a4.5 4.5 0 0 0 0-6.364l-29.636-29.636a4.5 4.5 0 0 0-6.364 0zM315.607 259.18l-14.787-14.787c-5.858-5.858-15.355-5.858-21.213 0l-16.425 16.425a4.5 4.5 0 0 0 0 6.364l29.636 29.636a4.5 4.5 0 0 0 6.364 0l16.425-16.425c5.857-5.857 5.857-15.355 0-21.213z"/></svg>
