<svg xmlns="http://www.w3.org/2000/svg" viewBox="0 0 512 512"><style>.st0{fill:none}</style><path d="M38 64h116c3.3 0 6-2.7 6-6V38c0-3.3-2.7-6-6-6H38c-3.3 0-6 2.7-6 6v20c0 3.3 2.7 6 6 6zM256 408c-66.2 0-120-53.8-120-120s53.8-120 120-120 120 53.8 120 120-53.8 120-120 120zm0-208c-48.5 0-88 39.5-88 88s39.5 88 88 88 88-39.5 88-88-39.5-88-88-88z"/><path d="M208 304c-8.8 0-16-7.2-16-16 0-35.3 28.7-64 64-64 8.8 0 16 7.2 16 16s-7.2 16-16 16c-17.6 0-32 14.4-32 32 0 8.8-7.2 16-16 16z"/><path d="M464 32H256c-15.1 0-29.3 7.1-38.4 19.2L184 96H48c-26.5 0-48 21.5-48 48v288c0 26.5 21.5 48 48 48h416c26.5 0 48-21.5 48-48V80c0-26.5-21.5-48-48-48zM243.2 70.4c3-4 7.8-6.4 12.8-6.4h208c8.8 0 16 7.2 16 16v18.7c-5-1.8-10.4-2.7-16-2.7H224l19.2-25.6zM480 432c0 8.8-7.2 16-16 16H48c-8.8 0-16-7.2-16-16V144c0-8.8 7.2-16 16-16h416c8.8 0 16 7.2 16 16v288z"/></svg>
