<svg xmlns="http://www.w3.org/2000/svg" viewBox="0 0 512 512"><style>.st0{fill:none}</style><path d="M256 504c136.967 0 248-111.033 248-248S392.967 8 256 8 8 119.033 8 256s111.033 248 248 248zM40 256c0-118.663 96.055-216 216-216 118.663 0 216 96.055 216 216 0 118.663-96.055 216-216 216-118.663 0-216-96.055-216-216z"/><path d="M160 288l96-96 96 96H160m191.962 32c28.425 0 42.767-34.487 22.627-54.627l-95.962-96c-12.496-12.496-32.758-12.497-45.255 0l-95.968 96C117.305 285.472 131.55 320 160.032 320h191.93z"/></svg>
