<svg xmlns="http://www.w3.org/2000/svg" viewBox="0 0 448 512"><style>.st0{fill:none}</style><path d="M0 80v352c0 26.51 21.49 48 48 48h352c26.51 0 48-21.49 48-48V80c0-26.51-21.49-48-48-48H48C21.49 32 0 53.49 0 80zm400-16c8.822 0 16 7.178 16 16v352c0 8.822-7.178 16-16 16H48c-8.822 0-16-7.178-16-16V80c0-8.822 7.178-16 16-16h352z"/><path d="M192 160l96 96-96 96V160m-32 191.962c0 28.425 34.487 42.767 54.627 22.627l96-95.962c12.496-12.496 12.497-32.758 0-45.255l-96-95.968C194.528 117.305 160 131.55 160 160.032v191.93z"/></svg>
