<svg xmlns="http://www.w3.org/2000/svg" viewBox="0 0 512 512"><style>.st0{fill:none}</style><path d="M8 256c0 136.967 111.033 248 248 248s248-111.033 248-248S392.967 8 256 8 8 119.033 8 256zM256 40c118.663 0 216 96.055 216 216 0 118.663-96.055 216-216 216-118.663 0-216-96.055-216-216 0-118.663 96.055-216 216-216z"/><path d="M224 160l96 96-96 96V160m-32 191.962c0 28.425 34.487 42.767 54.627 22.627l96-95.962c12.496-12.496 12.497-32.758 0-45.255l-96-95.968C226.528 117.305 192 131.55 192 160.032v191.93z"/></svg>
