<svg xmlns="http://www.w3.org/2000/svg" viewBox="0 0 448 512"><style>.st0{fill:none}</style><path d="M400 32H48C21.49 32 0 53.49 0 80v352c0 26.51 21.49 48 48 48h352c26.51 0 48-21.49 48-48V80c0-26.51-21.49-48-48-48zm16 400c0 8.822-7.178 16-16 16H48c-8.822 0-16-7.178-16-16V80c0-8.822 7.178-16 16-16h352c8.822 0 16 7.178 16 16v352z"/><path d="M320 224l-96 96-96-96h192m-191.962-32c-28.425 0-42.767 34.487-22.627 54.627l95.962 96c12.496 12.496 32.758 12.497 45.255 0l95.968-96c20.099-20.1 5.855-54.627-22.627-54.627H128.038z"/></svg>
