<svg xmlns="http://www.w3.org/2000/svg" viewBox="0 0 512 512"><style>.st0{fill:none}</style><path d="M256 8C119.033 8 8 119.033 8 256s111.033 248 248 248 248-111.033 248-248S392.967 8 256 8zm216 248c0 118.663-96.055 216-216 216-118.663 0-216-96.055-216-216 0-118.663 96.055-216 216-216 118.663 0 216 96.055 216 216z"/><path d="M352 224l-96 96-96-96h192m-191.962-32c-28.425 0-42.767 34.487-22.627 54.627l95.962 96c12.496 12.496 32.758 12.497 45.255 0l95.968-96c20.099-20.1 5.855-54.627-22.627-54.627H160.038z"/></svg>
