<svg xmlns="http://www.w3.org/2000/svg" viewBox="0 0 448 512"><style>.st0{fill:none}</style><path d="M48 480h352c26.51 0 48-21.49 48-48V80c0-26.51-21.49-48-48-48H48C21.49 32 0 53.49 0 80v352c0 26.51 21.49 48 48 48zM32 80c0-8.822 7.178-16 16-16h352c8.822 0 16 7.178 16 16v352c0 8.822-7.178 16-16 16H48c-8.822 0-16-7.178-16-16V80z"/><path d="M128 288l96-96 96 96H128m191.962 32c28.425 0 42.767-34.487 22.627-54.627l-95.962-96c-12.496-12.496-32.758-12.497-45.255 0l-95.968 96C85.305 285.472 99.55 320 128.032 320h191.93z"/></svg>
