<svg xmlns="http://www.w3.org/2000/svg" viewBox="0 0 512 512"><style>.st0{fill:none}</style><path d="M504 256C504 119.033 392.967 8 256 8S8 119.033 8 256s111.033 248 248 248 248-111.033 248-248zM256 472c-118.663 0-216-96.055-216-216 0-118.663 96.055-216 216-216 118.663 0 216 96.055 216 216 0 118.663-96.055 216-216 216z"/><path d="M288 352l-96-96 96-96v192m32-191.962c0-28.425-34.487-42.767-54.627-22.627l-96 95.962c-12.496 12.496-12.497 32.758 0 45.255l96 95.968c20.1 20.099 54.627 5.855 54.627-22.627V160.038z"/></svg>
