<svg xmlns="http://www.w3.org/2000/svg" viewBox="0 0 512 512"><style>.st0{fill:none}</style><path d="M256 504c136.967 0 248-111.033 248-248S392.967 8 256 8 8 119.033 8 256s111.033 248 248 248zM40 256c0-118.663 96.055-216 216-216 118.663 0 216 96.055 216 216 0 118.663-96.055 216-216 216-118.663 0-216-96.055-216-216z"/><path d="M264.485 169.393l115.05 115.051c4.686 4.686 4.686 12.284 0 16.971l-7.071 7.071c-4.686 4.686-12.284 4.686-16.971 0L256 208.992l-99.494 99.493c-4.686 4.686-12.284 4.686-16.971 0l-7.071-7.071c-4.686-4.686-4.686-12.284 0-16.971l115.05-115.051c4.687-4.685 12.285-4.685 16.971.001z"/></svg>
