<svg xmlns="http://www.w3.org/2000/svg" viewBox="0 0 512 512"><style>.st0{fill:none}</style><path d="M504 256C504 119.033 392.967 8 256 8S8 119.033 8 256s111.033 248 248 248 248-111.033 248-248zM256 472c-118.663 0-216-96.055-216-216 0-118.663 96.055-216 216-216 118.663 0 216 96.055 216 216 0 118.663-96.055 216-216 216z"/><path d="M169.393 247.515l115.051-115.05c4.686-4.686 12.284-4.686 16.971 0l7.071 7.071c4.686 4.686 4.686 12.284 0 16.971L208.992 256l99.493 99.494c4.686 4.686 4.686 12.284 0 16.971l-7.071 7.071c-4.686 4.686-12.284 4.686-16.971 0l-115.051-115.05c-4.685-4.687-4.685-12.285.001-16.971z"/></svg>
