<svg xmlns="http://www.w3.org/2000/svg" viewBox="0 0 448 512"><style>.st0{fill:none}</style><path d="M0 80v352c0 26.51 21.49 48 48 48h352c26.51 0 48-21.49 48-48V80c0-26.51-21.49-48-48-48H48C21.49 32 0 53.49 0 80zm400-16c8.822 0 16 7.178 16 16v352c0 8.822-7.178 16-16 16H48c-8.822 0-16-7.178-16-16V80c0-8.822 7.178-16 16-16h352z"/><path d="M303.557 264.485l-115.051 115.05c-4.686 4.686-12.284 4.686-16.971 0l-7.071-7.071c-4.686-4.686-4.686-12.284 0-16.971L263.958 256l-99.493-99.494c-4.686-4.686-4.686-12.284 0-16.971l7.071-7.071c4.686-4.686 12.284-4.686 16.971 0l115.051 115.05c4.685 4.687 4.685 12.285-.001 16.971z"/></svg>
