<svg xmlns="http://www.w3.org/2000/svg" viewBox="0 0 512 512"><style>.st0{fill:none}</style><path d="M8 256c0 136.967 111.033 248 248 248s248-111.033 248-248S392.967 8 256 8 8 119.033 8 256zM256 40c118.663 0 216 96.055 216 216 0 118.663-96.055 216-216 216-118.663 0-216-96.055-216-216 0-118.663 96.055-216 216-216z"/><path d="M342.607 264.485l-115.051 115.05c-4.686 4.686-12.284 4.686-16.971 0l-7.071-7.071c-4.686-4.686-4.686-12.284 0-16.971L303.008 256l-99.493-99.494c-4.686-4.686-4.686-12.284 0-16.971l7.071-7.071c4.686-4.686 12.284-4.686 16.971 0l115.051 115.05c4.685 4.687 4.685 12.285-.001 16.971z"/></svg>
