<svg xmlns="http://www.w3.org/2000/svg" viewBox="0 0 448 512"><style>.st0{fill:none}</style><path d="M4.465 430.475l7.07 7.071c4.686 4.686 12.284 4.686 16.971 0L224 242.053l195.494 195.493c4.686 4.686 12.284 4.686 16.971 0l7.07-7.071c4.686-4.686 4.686-12.284 0-16.97l-211.05-211.051c-4.686-4.686-12.284-4.686-16.971 0L4.465 413.505c-4.687 4.686-4.687 12.284 0 16.97z"/><path d="M4.465 302.475l7.07 7.071c4.686 4.686 12.284 4.686 16.971 0L224 114.053l195.494 195.493c4.686 4.686 12.284 4.686 16.971 0l7.07-7.071c4.686-4.686 4.686-12.284 0-16.97L232.485 74.454c-4.686-4.686-12.284-4.686-16.971 0L4.465 285.505c-4.687 4.686-4.687 12.284 0 16.97z"/></svg>
