<svg xmlns="http://www.w3.org/2000/svg" viewBox="0 0 256 512"><style>.st0{fill:none}</style><path d="M136.485 249.08l116 117.799c4.686 4.686 4.686 12.284 0 16.971l-7.07 7.071c-4.686 4.686-12.284 4.686-16.971 0L128 288.679 27.556 390.92c-4.686 4.686-12.284 4.686-16.971 0l-7.071-7.071c-4.686-4.686-4.686-12.284 0-16.971l116-117.799c4.687-4.685 12.285-4.685 16.971.001z"/><path d="M136.485 121.08l116 117.799c4.686 4.686 4.686 12.284 0 16.971l-7.07 7.071c-4.686 4.686-12.284 4.686-16.971 0L128 160.679 27.556 262.92c-4.686 4.686-12.284 4.686-16.971 0l-7.071-7.071c-4.686-4.686-4.686-12.284 0-16.971l116-117.799c4.687-4.685 12.285-4.685 16.971.001z"/></svg>
