<svg xmlns="http://www.w3.org/2000/svg" viewBox="0 0 320 512"><style>.st0{fill:none}</style><path d="M166.92 264.485l-117.799 116c-4.686 4.686-12.284 4.686-16.971 0l-7.071-7.071c-4.686-4.686-4.686-12.284 0-16.971L127.321 256 25.08 155.556c-4.686-4.686-4.686-12.284 0-16.971l7.071-7.071c4.686-4.686 12.284-4.686 16.971 0l117.799 116c4.685 4.687 4.685 12.285-.001 16.971z"/><path d="M294.92 264.485l-117.799 116c-4.686 4.686-12.284 4.686-16.971 0l-7.07-7.071c-4.686-4.686-4.686-12.284 0-16.971L255.321 256 153.08 155.556c-4.686-4.686-4.686-12.284 0-16.971l7.07-7.071c4.686-4.686 12.284-4.686 16.971 0l117.799 116c4.686 4.687 4.686 12.285 0 16.971z"/></svg>
