<svg xmlns="http://www.w3.org/2000/svg" viewBox="0 0 512 512"><circle cx="432" cy="432" r="20"/><circle cx="368" cy="432" r="20"/><path d="M468 320h-99.4l56.4-56.4c25.2-25.2 7.3-68.3-28.3-68.3H344V40c0-22.1-17.9-40-40-40h-96c-22.1 0-40 17.9-40 40v155.3h-52.7c-35.6 0-53.4 43.1-28.3 68.3l56.4 56.4H44c-24.3 0-44 19.7-44 44v104c0 24.3 19.7 44 44 44h424c24.3 0 44-19.7 44-44V364c0-24.3-19.7-44-44-44zm-358.3-79c-5-5-1.5-13.7 5.7-13.7H200V40c0-4.4 3.6-8 8-8h96c4.4 0 8 3.6 8 8v187.3h84.7c7.1 0 10.7 8.6 5.7 13.7L261.7 381.7c-3.1 3.1-8.2 3.1-11.3 0L109.7 241zM480 468c0 6.6-5.4 12-12 12H44c-6.6 0-12-5.4-12-12V364c0-6.6 5.4-12 12-12h131.4l52.3 52.3c15.6 15.6 40.9 15.6 56.6 0l52.3-52.3H468c6.6 0 12 5.4 12 12v104z"/></svg>
