<svg xmlns="http://www.w3.org/2000/svg" viewBox="0 0 576 512"><path d="M416 319.7V464c0 8.8-7.2 16-16 16H48c-8.8 0-16-7.2-16-16V112c0-8.8 7.2-16 16-16h272.3c1.6 0 3.1-.6 4.2-1.8l20-20c3.8-3.8 1.1-10.2-4.2-10.2H48C21.5 64 0 85.5 0 112v352c0 26.5 21.5 48 48 48h352c26.5 0 48-21.5 48-48V299.7c0-5.3-6.5-8-10.2-4.2l-20 20c-1.2 1.1-1.8 2.6-1.8 4.2z"/><path d="M563.7 64.9l-52.6-52.6c-16.4-16.4-43-16.4-59.4 0L139.2 324.8l-11.1 99.9c-1.5 13.4 9.8 24.7 23.2 23.2l99.9-11.1 312.5-312.5c16.4-16.4 16.4-43 0-59.4zM236.5 406.2l-75.1 8.3 8.3-75.1 233.5-233.5 66.7 66.7-233.4 233.6zm304.6-304.5l-48.4 48.4L426 83.4 474.4 35c4-4 10.3-3.8 14.1 0l52.6 52.6c3.9 3.8 3.9 10.2 0 14.1z"/></svg>
