<svg xmlns="http://www.w3.org/2000/svg" viewBox="0 0 384 512"><path d="M369.941 97.941l-83.882-83.882A48 48 0 0 0 252.118 0H48C21.49 0 0 21.49 0 48v416c0 26.51 21.49 48 48 48h288c26.51 0 48-21.49 48-48V131.882a48 48 0 0 0-14.059-33.941zm-22.627 22.628a15.89 15.89 0 0 1 4.195 7.431H256V32.491a15.88 15.88 0 0 1 7.431 4.195l83.883 83.883zM336 480H48c-8.837 0-16-7.163-16-16V48c0-8.837 7.163-16 16-16h176v104c0 13.255 10.745 24 24 24h104v304c0 8.837-7.163 16-16 16z"/><path d="M276 319.988H108c-6.627 0-12-5.373-12-12v-8c0-6.627 5.373-12 12-12h168c6.627 0 12 5.373 12 12v8c0 6.628-5.373 12-12 12z"/></svg>
