<svg xmlns="http://www.w3.org/2000/svg" viewBox="0 0 384 512"><path d="M369.941 97.941l-83.882-83.882A48 48 0 0 0 252.118 0H48C21.49 0 0 21.49 0 48v416c0 26.51 21.49 48 48 48h288c26.51 0 48-21.49 48-48V131.882a48 48 0 0 0-14.059-33.941zm-22.627 22.628a15.89 15.89 0 0 1 4.195 7.431H256V32.491a15.88 15.88 0 0 1 7.431 4.195l83.883 83.883zM336 480H48c-8.837 0-16-7.163-16-16V48c0-8.837 7.163-16 16-16h176v104c0 13.255 10.745 24 24 24h104v304c0 8.837-7.163 16-16 16z"/><path d="M214.627 303.988l48.083-48.083c4.686-4.686 4.686-12.284 0-16.971l-5.657-5.657c-4.686-4.686-12.284-4.686-16.97 0L192 281.361l-48.083-48.083c-4.686-4.686-12.284-4.686-16.97 0l-5.657 5.657c-4.686 4.686-4.686 12.284 0 16.971l48.083 48.083-48.083 48.083c-4.686 4.686-4.686 12.284 0 16.971l5.657 5.657c4.686 4.686 12.284 4.686 16.97 0L192 326.616l48.083 48.083c4.686 4.686 12.284 4.686 16.97 0l5.657-5.657c4.686-4.686 4.686-12.284 0-16.971l-48.083-48.083z"/></svg>
