<svg xmlns="http://www.w3.org/2000/svg" viewBox="0 0 576 512"><path d="M560.83 329.78l-94.603-88.696a6 6 0 0 0-8.481.273l-13.683 14.595a6 6 0 0 0 .274 8.481L503.61 320H388.22l-32 64H219.78l-32-64H72.39l59.273-55.566a6 6 0 0 0 .274-8.481l-13.683-14.595a6 6 0 0 0-8.481-.273L15.17 329.78A47.99 47.99 0 0 0 0 364.8V464c0 26.51 21.49 48 48 48h480c26.51 0 48-21.49 48-48v-99.2a47.99 47.99 0 0 0-15.17-35.02zM544 464c0 8.84-7.16 16-16 16H48c-8.84 0-16-7.16-16-16v-96c0-8.84 7.16-16 16-16h120l32 64h176l32-64h120c8.84 0 16 7.16 16 16v96z"/><path d="M160.007 192H224v104c0 13.25 10.75 24 24 24h80c13.25 0 24-10.75 24-24V192h63.959c28.43 0 42.77-34.49 22.63-54.63L310.63 9.367c-12.5-12.49-32.76-12.49-45.26 0L137.407 137.37c-20.09 20.1-5.88 54.63 22.6 54.63zM288 32l128 128h-96v128h-64V160h-96L288 32z"/></svg>
