<svg xmlns="http://www.w3.org/2000/svg" viewBox="0 0 512 512"><path d="M493.3 56.2l-37.5-37.5c-25-25-65.5-25-90.5 0L12.8 371.2.2 485.3c-1.7 15.3 11.2 28.2 26.5 26.5l114.2-12.7 352.4-352.4c24.9-24.9 24.9-65.5 0-90.5zM81.9 347.3l233.4-233.4 30.1 30.1L112 377.4l-30.1-30.1zm44.2 121.3L64 475.5V448H36.5l6.9-62.1L59.3 370l82.7 82.7-15.9 15.9zm38.6-38.5L134.6 400 368 166.6l30.1 30.1-233.4 233.4zm305.9-306L420.7 174 338 91.3l49.9-49.9c12.5-12.5 32.7-12.5 45.3 0l37.5 37.5c12.4 12.4 12.4 32.7-.1 45.2z"/></svg>
