<svg xmlns="http://www.w3.org/2000/svg" viewBox="0 0 512 512"><style>.st0{fill:none}</style><path d="M372 238h-98v-98c0-6.6-5.4-12-12-12h-12c-6.6 0-12 5.4-12 12v98h-98c-6.6 0-12 5.4-12 12v12c0 6.6 5.4 12 12 12h98v98c0 6.6 5.4 12 12 12h12c6.6 0 12-5.4 12-12v-98h98c6.6 0 12-5.4 12-12v-12c0-6.6-5.4-12-12-12z"/><path d="M256 8C119 8 8 119 8 256s111 248 248 248 248-111 248-248S393 8 256 8zm0 464c-118.7 0-216-96.1-216-216 0-118.7 96.1-216 216-216 118.7 0 216 96.1 216 216 0 118.7-96.1 216-216 216z"/></svg>
