<svg xmlns="http://www.w3.org/2000/svg" viewBox="0 0 512 512"><style>.st0{fill:none}</style><path d="M371.6 50.6l-3.9 7c-3.1 5.6-1.3 12.6 4.1 16C431.9 111.8 472 179 472 256c0 118.7-96.1 216-216 216-118.7 0-216-96.1-216-216 0-76.4 39.9-144 100.3-182.4 5.4-3.4 7.2-10.5 4.1-16l-3.9-7c-3.4-6-11.1-7.9-16.9-4.2C54 90.3 7.9 168 8 256.4 8.2 393 120 504.3 256.5 504 393.2 503.7 504 392.8 504 256c0-88.2-46.1-165.7-115.5-209.7-5.8-3.6-13.6-1.8-16.9 4.3z"/><path d="M260 288h-8c-6.6 0-12-5.4-12-12V12c0-6.6 5.4-12 12-12h8c6.6 0 12 5.4 12 12v264c0 6.6-5.4 12-12 12z"/></svg>
