<svg xmlns="http://www.w3.org/2000/svg" viewBox="0 0 576 512"><style>.st0{fill:none}</style><path d="M267.6 290.3c.2 3.2 2.8 5.7 6 5.7h28.9c3.2 0 5.8-2.5 6-5.7l7.3-132c.2-3.4-2.5-6.3-6-6.3h-43.6c-3.4 0-6.2 2.9-6 6.3l7.4 132z"/><circle cx="288" cy="352" r="32"/><path d="M528.1 171.4L382 150.2 316.7 17.8C305-5.9 271.1-6 259.3 17.8L194 150.2 47.9 171.4c-26.2 3.8-36.7 36.1-17.7 54.6l105.7 103-25 145.5c-4.5 26.1 23 46 46.4 33.7L288 439.6l130.7 68.7c23.3 12.3 50.9-7.5 46.4-33.7l-25-145.5 105.7-103c19-18.6 8.5-50.9-17.7-54.7zM405.8 317.9l27.8 162L288 403.4l-145.5 76.5 27.8-162L52.5 203.1l162.7-23.6L288 32l72.8 147.4L523.5 203 405.8 317.9z"/></svg>
