<svg xmlns="http://www.w3.org/2000/svg" viewBox="0 0 512 512"><circle cx="432" cy="432" r="20"/><circle cx="368" cy="432" r="20"/><path d="M468 320H344v-99.3h52.7c35.6 0 53.4-43.1 28.3-68.3L284.3 11.7c-15.6-15.6-40.9-15.6-56.6 0L87 152.4c-25.2 25.2-7.3 68.3 28.3 68.3H168V320H44c-24.3 0-44 19.7-44 44v104c0 24.3 19.7 44 44 44h424c24.3 0 44-19.7 44-44V364c0-24.3-19.7-44-44-44zM115.3 188.7c-7.1 0-10.7-8.6-5.7-13.7L250.3 34.3c3.1-3.1 8.2-3.1 11.3 0L402.3 175c5 5 1.5 13.7-5.7 13.7H312V376c0 4.4-3.6 8-8 8h-96c-4.4 0-8-3.6-8-8V188.7h-84.7zM480 468c0 6.6-5.4 12-12 12H44c-6.6 0-12-5.4-12-12V364c0-6.6 5.4-12 12-12h124v24c0 22.1 17.9 40 40 40h96c22.1 0 40-17.9 40-40v-24h124c6.6 0 12 5.4 12 12v104z"/></svg>
