<svg xmlns="http://www.w3.org/2000/svg" viewBox="0 0 448 512"><style>.st0{fill:none}</style><path d="M400 32H48C21.49 32 0 53.49 0 80v352c0 26.51 21.49 48 48 48h352c26.51 0 48-21.49 48-48V80c0-26.51-21.49-48-48-48zm16 400c0 8.822-7.178 16-16 16H48c-8.822 0-16-7.178-16-16V80c0-8.822 7.178-16 16-16h352c8.822 0 16 7.178 16 16v352z"/><path d="M280.739 262.463c-12.991-10.237-29.535-16.827-45.535-23.199-30.293-12.065-48.686-20.816-48.686-40.577 0-8.022 3.73-15.431 10.503-20.862 7.762-6.223 18.702-9.512 31.638-9.512 26.525 0 46.026 17.625 46.205 17.789a7.41 7.41 0 0 0 6.108 1.909 7.446 7.446 0 0 0 5.326-3.565l10.982-18.434a7.54 7.54 0 0 0-1.033-9.073c-.828-.863-19.519-19.942-53.485-24.104V103.5c0-4.142-3.335-7.5-7.447-7.5h-18.637c-4.113 0-7.447 3.358-7.447 7.5v30.461c-16.847 3.224-31.337 10.4-42.196 20.952-12.279 11.933-19.042 27.716-19.042 44.444 0 20.111 7.857 36.147 24.02 49.027 13.422 10.695 30.381 17.546 46.781 24.171 29.252 11.817 47.014 20.276 47.014 38.076 0 22.942-20.465 33.391-39.479 33.391-32.481 0-55.599-23.233-55.912-23.552a7.421 7.421 0 0 0-5.678-2.247 7.431 7.431 0 0 0-5.45 2.792l-13.645 17.094a7.542 7.542 0 0 0 .226 9.669c.965 1.099 22.976 25.666 63.361 31.256V408.5c0 4.142 3.334 7.5 7.447 7.5h18.637c4.113 0 7.447-3.358 7.447-7.5v-29.622c17.277-2.919 32.019-10.475 42.93-22.072C297.498 344.259 304 327.503 304 309.626c0-19.401-7.609-34.828-23.261-47.163z"/></svg>
