<svg xmlns="http://www.w3.org/2000/svg" viewBox="0 0 480 512"><path d="M344.138 470.309l14.229-164.795C316.289 272.404 288 228.499 288 176 288 81.665 376.079 0 440 0c22.056 0 40 17.271 40 38.5v435c0 21.229-17.944 38.5-40 38.5h-56c-22.845 0-41.845-18.72-39.862-41.691zM320 176c0 51.031 32.16 85.46 71.779 114.525L376.018 473.06c-.317 3.68 3.38 6.94 7.982 6.94h56c4.337 0 8-2.977 8-6.5v-435c0-3.523-3.663-6.5-8-6.5-44.624 0-120 65.769-120 144zM240.74 33.75C237.364 14.27 219.459 0 194.56 0c-11.905 0-24.083 3.384-33.29 11.16C152.94 4.1 141.32 0 128 0s-24.94 4.1-33.27 11.16C85.523 3.383 73.344 0 61.44 0 36.222 0 18.607 14.525 15.26 33.75 13.54 43.16 0 118.41 0 149.87c0 50.899 26.714 91.611 70.95 110.74L59.56 471.42C58.366 493.432 75.94 512 98 512h60c22.015 0 39.637-18.508 38.44-40.58l-11.39-210.81C229.251 241.496 256 200.811 256 149.87c0-31.46-13.54-106.71-15.26-116.12zM152.29 240l12.2 233.15c.198 3.705-2.743 6.85-6.49 6.85H98a6.498 6.498 0 0 1-6.49-6.85L103.71 240C61.275 231.209 32 197.045 32 149.87c0-29.69 14.77-110.56 14.77-110.56 1.597-9.883 28.294-9.689 29.54.24v122.41c.911 11.466 28.247 11.677 29.54.24l7.38-122.92c1.621-9.706 27.919-9.706 29.54 0l7.38 122.92c1.293 11.44 28.629 11.224 29.54-.24V39.55c1.246-9.93 27.944-10.122 29.54-.24 0 0 14.77 80.87 14.77 110.56 0 46.973-29.076 81.298-71.71 90.13z"/></svg>
